<svg xmlns="http://www.w3.org/2000/svg" width="185" height="278" viewBox="0 0 185 278"><g transform="translate(-159 -121)"><rect width="185" height="278" transform="translate(159 121)" fill="#212026"/><g transform="translate(221.995 233.997)"><path d="M57.558,50.582A2.979,2.979,0,0,1,55.009,52H35a3,3,0,0,1-2.68-4.336l10-20.008a3,3,0,0,1,5.36,0l10,20.008A2.979,2.979,0,0,1,57.558,50.582ZM55.9,48.562l-10-20.008a1,1,0,0,0-1.782,0l-10,20.008A1,1,0,0,0,35,50H55.009a1,1,0,0,0,.891-1.441ZM45,48a.99.99,0,1,1,.71-.29A1.052,1.052,0,0,1,45,48Zm0-4a1,1,0,0,1-1-1V35a1,1,0,0,1,2,0v8A1,1,0,0,1,45,44ZM10,15a5,5,0,1,1,5,5A5.006,5.006,0,0,1,10,15Zm8,0a3,3,0,1,0-3,3A3,3,0,0,0,18,15Zm18.2,1.4a.962.962,0,0,1,.86-.4,1,1,0,0,1,.807.5l3.454,6a1,1,0,1,1-1.733,1l-2.7-4.686L25.8,33.6a1,1,0,0,1-1.507.107l-7.237-7.236L7.179,38H29a1,1,0,0,1,0,2H5a1,1,0,0,1-.348-.07c-.032-.012-.06-.027-.091-.042a.977.977,0,0,1-.219-.147c-.021-.02-.044-.035-.064-.056a.987.987,0,0,1-.187-.267s0-.009,0-.013A.979.979,0,0,1,4,39V5A1,1,0,0,1,5,4H51a1,1,0,0,1,1,1V23a1,1,0,0,1-2,0V6H6V36.3L16.246,24.352a1,1,0,0,1,1.466-.056L24.9,31.481,36.2,16.4ZM55,24a1,1,0,0,1-1-1V3a1,1,0,0,0-1-1H3A1,1,0,0,0,2,3V41a1,1,0,0,0,1,1H29a1,1,0,0,1,0,2H3a3,3,0,0,1-3-3V3A3,3,0,0,1,3,0H53a3,3,0,0,1,3,3V23A1,1,0,0,1,55,24Z" fill="#585761"/></g></g></svg>