<svg xmlns="http://www.w3.org/2000/svg" width="1280" height="720" viewBox="0 0 1280 720"><g transform="translate(-159 -121)"><rect width="1280" height="720" transform="translate(159 121)" fill="#212026"/><g transform="translate(713.995 404.997)"><path d="M168.237,147.849A8.708,8.708,0,0,1,160.786,152H102.3a8.76,8.76,0,0,1-7.834-12.674L123.71,80.844a8.759,8.759,0,0,1,15.668,0l29.242,58.485A8.708,8.708,0,0,1,168.237,147.849Zm-4.846-5.9L134.148,83.46a2.911,2.911,0,0,0-5.209,0L99.7,141.945a2.911,2.911,0,0,0,2.6,4.212h58.485a2.911,2.911,0,0,0,2.6-4.212Zm-31.847-1.634a2.895,2.895,0,1,1,2.075-.848A3.074,3.074,0,0,1,131.543,140.311Zm0-11.692a2.923,2.923,0,0,1-2.923-2.923V102.311a2.923,2.923,0,1,1,5.846,0V125.7A2.923,2.923,0,0,1,131.543,128.618ZM29.236,43.849A14.615,14.615,0,1,1,43.851,58.465,14.632,14.632,0,0,1,29.236,43.849Zm23.385,0a8.769,8.769,0,1,0-8.769,8.769A8.78,8.78,0,0,0,52.62,43.849Zm53.2,4.092a2.812,2.812,0,0,1,2.514-1.163,2.923,2.923,0,0,1,2.359,1.459l10.1,17.538a2.923,2.923,0,1,1-5.066,2.917l-7.886-13.7L75.42,98.218a2.929,2.929,0,0,1-4.405.313L49.861,77.38l-28.886,33.7h63.8a2.923,2.923,0,0,1,0,5.846H14.62a2.909,2.909,0,0,1-1.017-.2c-.094-.035-.175-.079-.266-.123a2.856,2.856,0,0,1-.64-.43c-.061-.058-.129-.1-.187-.164a2.885,2.885,0,0,1-.547-.78c-.006-.012,0-.026-.006-.038A2.862,2.862,0,0,1,11.7,114V14.618A2.923,2.923,0,0,1,14.62,11.7H149.082A2.923,2.923,0,0,1,152,14.618V67.234a2.923,2.923,0,1,1-5.846,0V17.541H17.543V106.1L47.479,71.177a2.914,2.914,0,0,1,4.285-.164l21,21L105.82,47.941Zm54.954,22.215a2.923,2.923,0,0,1-2.923-2.923V8.772a2.928,2.928,0,0,0-2.923-2.923H8.774A2.926,2.926,0,0,0,5.851,8.772V119.849a2.926,2.926,0,0,0,2.923,2.923h76a2.923,2.923,0,0,1,0,5.846h-76A8.778,8.778,0,0,1,0,119.849V8.772A8.778,8.778,0,0,1,8.774,0H154.928A8.78,8.78,0,0,1,163.7,8.772V67.234A2.923,2.923,0,0,1,160.774,70.157Z" transform="translate(0 0)" fill="#585761"/></g></g></svg>